<mxfile host="app.diagrams.net" modified="2024-05-14T19:59:16.487Z" agent="Mozilla/5.0 (Windows NT 10.0; Win64; x64; rv:125.0) Gecko/20100101 Firefox/125.0" version="24.4.0" etag="bq1jjHFXyT_1r3S-6ZN1" type="github">
  <diagram name="PÃ¡gina-1" id="Nif9Kxf4pB82NnPPU3D5">
    <mxGraphModel>
      <root>
        <mxCell id="0" />
        <mxCell id="1" parent="0" />
      </root>
    </mxGraphModel>
  </diagram>
</mxfile>
